# xmcd
#
# Track frame offsets:
#	150
#	42102
#	64506
#	85845
#	131934
#	150588
#	203288
#	216790
#	218662
#	233248
#	242755
#	264344
#
# Disc length: 3867 seconds
#
# Revision: 1
# Processed by: cddbd v1.5.2PL0 Copyright (c) Steve Scherf et al.
# Submitted via: audiograbber 1.83.01
#
DISCID=9c0f190c
DTITLE=Miguel Aguila - Salon Buenas Aires
DYEAR=1900
DGENRE=Argentina
TTITLE0=Charango Capriccioso Op90
TTITLE1=Presto II
TTITLE2=Salon-Samba
TTITLE3=Salon-Tango to Dream
TTITLE4=Salon-Obsessed Milonga
TTITLE5=Life is a dream
TTITLE6=Clock: Shelves full of clocks
TTITLE7=Clocks: Midnight strikes
TTITLE8=Clocks: the old clocks story
TTITLE9=Clocks: Sundial
TTITLE10=Clocks: Romance of the Swiss clock
TTITLE11=Clocks: the joy of keeping time
EXTD=
EXTT0=
EXTT1=
EXTT2=
EXTT3=
EXTT4=
EXTT5=
EXTT6=
EXTT7=
EXTT8=
EXTT9=
EXTT10=
EXTT11=
PLAYORDER=
